<?xml version="1.0" encoding="UTF-8" standalone="no"?>
<!-- Created with Inkscape (http://www.inkscape.org/) -->

<svg
   width="255.6714mm"
   height="41.431252mm"
   viewBox="0 0 255.6714 41.431252"
   version="1.1"
   id="svg1"
   xml:space="preserve"
   inkscape:version="1.4 (e7c3feb1, 2024-10-09)"
   sodipodi:docname="natasha-cohn.svg"
   xmlns:inkscape="http://www.inkscape.org/namespaces/inkscape"
   xmlns:sodipodi="http://sodipodi.sourceforge.net/DTD/sodipodi-0.dtd"
   xmlns="http://www.w3.org/2000/svg"
   xmlns:svg="http://www.w3.org/2000/svg"><sodipodi:namedview
     id="namedview1"
     pagecolor="#505050"
     bordercolor="#eeeeee"
     borderopacity="1"
     inkscape:showpageshadow="0"
     inkscape:pageopacity="0"
     inkscape:pagecheckerboard="0"
     inkscape:deskcolor="#505050"
     inkscape:document-units="mm"
     inkscape:zoom="0.97470276"
     inkscape:cx="412.9464"
     inkscape:cy="74.38165"
     inkscape:window-width="1728"
     inkscape:window-height="992"
     inkscape:window-x="0"
     inkscape:window-y="34"
     inkscape:window-maximized="0"
     inkscape:current-layer="g2" /><defs
     id="defs1" /><g
     inkscape:label="Layer 1"
     inkscape:groupmode="layer"
     id="layer1"
     transform="translate(0.52813046,-90.779328)"><g
       id="g2"><path
         style="opacity:1;fill:#a56334;fill-opacity:1"
         d="m -0.4854635,131.97034 c -0.15290108,-0.18424 0.0862534,-1.14053 1.02561016,-4.10104 0.67375394,-2.12343 1.79559124,-5.52766 2.49297184,-7.56495 0.6973806,-2.03729 1.8576328,-5.25198 2.5783383,-7.14375 0.7207055,-1.89177 1.9506894,-4.94771 2.7332975,-6.79098 0.7826081,-1.84326 2.1646467,-4.8857 3.0711977,-6.760966 1.319055,-2.728568 1.711133,-3.397599 1.962988,-3.349587 0.173093,0.033 0.340448,0.240597 0.3719,0.461333 0.03145,0.220736 -0.137977,0.735863 -0.37651,1.144726 -0.238532,0.408863 -1.118927,2.235144 -1.956432,4.058414 -0.837505,1.82326 -2.0419229,4.56169 -2.6764843,6.08541 -0.6345613,1.52372 -1.7909697,4.47696 -2.5697964,6.56276 -0.7788266,2.0858 -1.7672643,4.81674 -2.196528,6.06876 -0.4292638,1.25202 -0.7508133,2.30607 -0.7145546,2.34233 0.036259,0.0363 0.4392299,-0.59921 0.8954914,-1.41214 0.4562615,-0.81294 1.5650369,-2.65029 2.4639452,-4.08299 0.8989083,-1.4327 2.5804096,-3.96375 3.7366697,-5.62455 1.15626,-1.66081 3.00741,-4.17158 4.113667,-5.57949 1.106257,-1.40791 2.743203,-3.39328 3.637659,-4.41192 0.894455,-1.01865 2.529336,-2.725518 3.633068,-3.793045 1.103732,-1.067528 2.681473,-2.4429 3.506091,-3.056382 0.824618,-0.613483 2.241699,-1.484209 3.149068,-1.934948 1.527649,-0.758865 1.749605,-0.819649 2.998611,-0.821185 1.054662,-0.0013 1.509109,0.08338 2.083646,0.388234 0.404139,0.214441 0.88843,0.609971 1.076202,0.878955 0.187772,0.268985 0.492113,0.885938 0.676313,1.371007 0.272919,0.718701 0.331798,1.322704 0.318101,3.263195 -0.01223,1.732926 -0.12342,2.885499 -0.408385,4.233329 -0.215368,1.01865 -1.058158,4.55084 -1.872867,7.84931 -0.814709,3.29847 -1.603279,6.70215 -1.752378,7.56373 -0.149099,0.86158 -0.271089,2.01795 -0.271089,2.56972 0,0.55177 0.124123,1.42119 0.27583,1.93204 0.154899,0.5216 0.535812,1.21231 0.868813,1.57542 0.574203,0.62611 0.631105,0.64629 1.796739,0.63695 0.949784,-0.008 1.489544,-0.13094 2.558305,-0.58454 0.745001,-0.31619 2.134064,-1.11727 3.086805,-1.78018 0.952741,-0.66291 2.367257,-1.73603 3.143368,-2.38472 0.776111,-0.64868 2.433818,-2.14205 3.683792,-3.31859 1.249975,-1.17654 2.361225,-2.15869 2.469445,-2.18256 0.10822,-0.0239 0.534166,-0.13584 0.946547,-0.24883 0.585521,-0.16044 0.80772,-0.15736 1.014236,0.014 0.145449,0.12071 0.264452,0.35263 0.264452,0.51538 0,0.16274 -0.09525,0.39115 -0.211667,0.50757 -0.116416,0.11641 -0.414072,0.21196 -0.661458,0.21232 -0.247385,3.7e-4 -0.70536,0.15649 -1.017721,0.34694 -0.312361,0.19046 -0.808455,0.67832 -1.10243,1.08414 -0.293976,0.40582 -0.534502,0.88002 -0.534502,1.05376 0,0.17375 0.06776,0.35779 0.150587,0.40897 0.08282,0.0512 0.499541,-0.13095 0.926041,-0.40476 0.426501,-0.2738 1.251706,-1.01115 1.833789,-1.63855 0.582083,-0.62739 1.519675,-1.67088 2.083536,-2.31885 0.765629,-0.87984 1.139607,-1.17814 1.477051,-1.17814 0.445582,0 0.450281,0.0141 0.338863,1.01424 -0.06214,0.55783 -0.161457,1.62789 -0.220702,2.37791 -0.08807,1.11493 -0.05285,1.44742 0.193057,1.82272 0.165425,0.25247 0.569862,0.57147 0.898749,0.70889 0.332368,0.13887 1.175572,0.24985 1.898343,0.24985 0.715301,0 1.910149,-0.15595 2.655671,-0.34663 0.745417,-0.19064 2.0772,-0.71947 2.959517,-1.17517 0.887921,-0.45859 2.04775,-1.2401 2.597563,-1.75027 0.918059,-0.85186 1.024117,-1.03353 1.399252,-2.3967 0.223245,-0.81124 0.848152,-2.58623 1.388682,-3.94442 0.540531,-1.3582 1.216354,-2.93389 1.50183,-3.50153 0.285476,-0.56765 0.484554,-1.06658 0.442395,-1.10874 -0.04216,-0.0422 -0.702199,0.0519 -1.466757,0.20908 -0.764558,0.15715 -1.981887,0.53137 -2.705176,0.8316 -1.029518,0.42735 -1.555965,0.79036 -2.424483,1.6718 -0.610178,0.61926 -1.189178,1.07663 -1.286667,1.01638 -0.09749,-0.0603 -0.177252,-0.34097 -0.177252,-0.62381 0,-0.38857 0.247909,-0.76705 1.014236,-1.54845 0.656194,-0.66909 1.41898,-1.22424 2.160764,-1.57259 0.63059,-0.29612 1.6653,-0.66564 2.299356,-0.82115 0.634056,-0.15551 1.65124,-0.33483 2.260409,-0.39851 1.107581,-0.11576 1.107581,-0.11576 1.869753,-1.63284 0.419195,-0.83439 1.369698,-2.625593 2.112229,-3.980446 0.742531,-1.354853 1.44612,-2.524419 1.56353,-2.599035 0.11741,-0.07462 0.271491,-0.136882 0.342403,-0.138367 0.07091,-0.0015 0.177202,0.189624 0.236199,0.424689 0.07751,0.30881 -0.08683,0.761499 -0.592294,1.631597 -0.38476,0.662314 -1.264956,2.254678 -1.955991,3.538582 -0.691035,1.28391 -1.256428,2.36363 -1.256428,2.39937 0,0.0357 0.853281,0.11883 1.896181,0.18462 1.042899,0.0658 2.967742,0.27741 4.27743,0.47024 1.309687,0.19284 2.817812,0.45021 3.351389,0.57193 0.909076,0.2074 0.970139,0.25438 0.970139,0.74637 0,0.48521 -0.04684,0.52394 -0.617362,0.51059 -0.339548,-0.008 -1.530173,-0.18864 -2.645833,-0.40154 -1.115659,-0.21291 -3.243809,-0.48074 -4.729222,-0.59519 -1.896518,-0.14612 -2.788326,-0.15285 -2.994848,-0.0226 -0.161755,0.10204 -0.792658,1.32103 -1.402007,2.70887 -0.609349,1.38785 -1.419876,3.37116 -1.801171,4.40737 -0.381295,1.03622 -0.911504,2.71094 -1.178242,3.72161 -0.369967,1.4018 -0.487508,2.26327 -0.495647,3.63263 -0.0092,1.54807 0.03937,1.86207 0.353009,2.28216 0.200022,0.2679 0.583085,0.65075 0.85125,0.85078 0.354985,0.26478 0.743202,0.36122 1.427598,0.35466 0.719105,-0.007 1.255209,-0.16479 2.281158,-0.67184 0.737624,-0.36455 1.915926,-1.12354 2.618448,-1.68663 0.702522,-0.56309 1.914758,-1.68952 2.693856,-2.50316 0.779099,-0.81365 1.74167,-1.85646 2.139048,-2.31737 0.462829,-0.53682 0.991862,-0.93304 1.471952,-1.10243 0.412197,-0.14543 0.899922,-0.26442 1.083832,-0.26442 0.189247,0 0.425412,0.19979 0.544107,0.4603 0.180033,0.39513 0.162239,0.49501 -0.125689,0.70555 -0.184478,0.1349 -0.484211,0.24526 -0.666074,0.24526 -0.181864,0 -0.504037,0.0891 -0.71594,0.19794 -0.211903,0.10887 -0.610646,0.40653 -0.886096,0.66146 -0.275449,0.25494 -0.612793,0.67786 -0.749652,0.93983 -0.13686,0.26197 -0.248836,0.639 -0.248836,0.83785 0,0.19884 0.05953,0.36124 0.132291,0.36088 0.07276,-3.7e-4 0.391554,-0.15874 0.708431,-0.35194 0.316876,-0.1932 0.991563,-0.76837 1.499305,-1.27816 0.507742,-0.50979 1.543649,-1.62142 2.302016,-2.47029 0.847359,-0.94848 1.512403,-1.5434 1.725328,-1.5434 0.190563,0 0.393728,0.12313 0.451479,0.27363 0.05775,0.15049 -0.031,0.95843 -0.197224,1.79542 -0.182331,0.91809 -0.257808,1.81799 -0.19026,2.26843 0.06685,0.44579 0.287242,0.92191 0.546971,1.18164 0.239254,0.23925 0.681926,0.48439 0.983716,0.54475 0.301791,0.0604 1.07457,0.10857 1.717286,0.10713 0.642717,-0.001 1.671151,-0.12108 2.285407,-0.26589 0.614257,-0.14481 1.699683,-0.53258 2.412057,-0.86172 0.712375,-0.32914 1.678238,-0.85786 2.146364,-1.17493 0.468126,-0.31708 1.343709,-1.08556 1.945742,-1.70775 0.705495,-0.72912 1.207116,-1.10991 1.411111,-1.07121 0.185563,0.0352 0.336757,0.24186 0.365455,0.49951 0.03572,0.32071 -0.148602,0.62979 -0.682138,1.14383 -0.402098,0.3874 -0.801156,0.88866 -0.886796,1.11391 -0.08564,0.22525 -0.155709,0.91564 -0.155709,1.53418 0,0.61855 0.05953,1.16071 0.132292,1.2048 0.07276,0.0441 0.648229,-0.0395 1.278819,-0.18569 0.630591,-0.14622 2.400932,-0.5738 3.934102,-0.95019 1.53316,-0.37639 3.6043,-1.00367 4.60252,-1.39395 0.99823,-0.39029 2.31363,-1.05665 2.92311,-1.48081 1.10816,-0.77119 1.10816,-0.77119 2.47529,-4.09849 0.75192,-1.83001 1.80881,-4.33116 2.34865,-5.55811 0.53985,-1.22696 1.47094,-3.21133 2.0691,-4.40973 0.59815,-1.198393 1.52571,-2.917004 2.06124,-3.819132 0.67177,-1.131654 1.06184,-1.623255 1.25801,-1.585475 0.15639,0.03012 0.30975,0.186687 0.3408,0.347932 0.0311,0.161245 -0.49959,1.311271 -1.1792,2.555613 -0.67962,1.244342 -2.02135,3.969002 -2.98162,6.054802 -0.96027,2.0858 -2.36208,5.30049 -3.11514,7.14375 -0.75305,1.84326 -1.51495,3.68873 -1.69311,4.10104 -0.17815,0.41231 -0.26385,0.74965 -0.19045,0.74965 0.0734,0 0.36661,-0.24503 0.65154,-0.54453 0.28494,-0.29949 0.99432,-0.90633 1.57641,-1.34853 0.58208,-0.4422 1.47315,-0.99586 1.98015,-1.23035 0.507,-0.2345 1.25655,-0.43098 1.66567,-0.43662 0.56459,-0.008 0.82066,0.0846 1.06256,0.38331 0.17882,0.22084 0.3187,0.67962 0.3187,1.0453 0,0.44229 -0.36842,1.4106 -1.14653,3.01337 -0.63059,1.29891 -1.14652,2.58252 -1.14652,2.85246 0,0.32866 0.14543,0.58609 0.44025,0.77926 0.29378,0.19249 0.81096,0.28633 1.55447,0.28204 0.61282,-0.004 1.62058,-0.13764 2.23947,-0.29801 0.61889,-0.16037 1.62827,-0.51966 2.24305,-0.79842 0.61479,-0.27876 1.80832,-0.92392 2.65228,-1.4337 0.84397,-0.50978 2.17118,-1.43568 2.94936,-2.05755 0.77817,-0.62187 1.73236,-1.429 2.12042,-1.79362 0.38806,-0.36462 1.07482,-0.79983 1.52613,-0.96715 0.45132,-0.16732 0.97977,-0.25369 1.17433,-0.19194 0.19457,0.0618 0.39828,0.22832 0.45271,0.37015 0.0544,0.14183 0.053,0.37762 -0.003,0.52397 -0.0562,0.14636 -0.31164,0.31156 -0.56773,0.36712 -0.25609,0.0555 -0.68662,0.18469 -0.95674,0.28697 -0.27011,0.10227 -0.79688,0.53332 -1.17059,0.95788 -0.37371,0.42456 -0.71845,0.92095 -0.76608,1.10309 -0.0476,0.18215 -0.0275,0.42682 0.0448,0.54372 0.10007,0.16192 0.25708,0.14754 0.65909,-0.0603 0.29025,-0.15009 0.95658,-0.69336 1.48073,-1.20725 0.52416,-0.5139 1.61652,-1.67284 2.42747,-2.57543 1.10864,-1.2339 1.56763,-1.62777 1.84997,-1.5875 0.30542,0.0436 0.37227,0.16878 0.35821,0.67093 -0.01,0.33954 -0.11853,1.21267 -0.24227,1.94027 -0.17418,1.02411 -0.17867,1.49235 -0.0199,2.07304 0.12921,0.47255 0.37932,0.86418 0.67589,1.05834 0.38259,0.25047 0.85217,0.30598 2.50662,0.29635 1.72609,-0.0101 2.23194,-0.0817 3.32484,-0.471 0.70895,-0.25253 1.89422,-0.80281 2.63392,-1.22286 0.7397,-0.42005 1.81541,-1.19709 2.39048,-1.72675 0.97025,-0.89364 1.06236,-0.94006 1.27868,-0.64423 0.14614,0.19987 0.18192,0.46041 0.0959,0.69844 -0.0755,0.2088 -0.66662,0.82689 -1.31368,1.37351 -0.64706,0.54663 -1.71099,1.27223 -2.36428,1.61245 -0.6533,0.34021 -1.78312,0.83556 -2.51073,1.10077 -1.00019,0.36457 -1.76445,0.504 -3.13288,0.57153 -1.4377,0.071 -1.97111,0.0278 -2.59351,-0.20991 -0.43096,-0.16458 -1.02146,-0.57021 -1.31224,-0.90138 -0.29078,-0.33118 -0.57946,-0.87276 -0.64151,-1.20352 -0.062,-0.33076 -0.0858,-1.13081 -0.0528,-1.77789 0.06,-1.1765 0.06,-1.1765 -0.90182,-0.0639 -0.52902,0.61196 -1.36246,1.49609 -1.85209,1.96472 -0.48963,0.46864 -1.18472,1.00442 -1.54466,1.19063 -0.35994,0.18621 -0.85027,0.33856 -1.08963,0.33856 -0.26006,0 -0.58232,-0.18704 -0.80078,-0.46476 -0.20107,-0.25562 -0.36558,-0.57312 -0.36558,-0.70556 0,-0.13243 -0.0397,-0.24079 -0.0883,-0.24079 -0.0486,0 -0.82246,0.50662 -1.7198,1.12582 -0.89733,0.61921 -2.36431,1.49242 -3.25996,1.94047 -0.89565,0.44806 -2.24503,1.02405 -2.99861,1.27999 -0.95881,0.32564 -1.76733,0.47102 -2.69308,0.48424 -0.85811,0.0123 -1.50652,-0.0738 -1.8455,-0.24505 -0.28742,-0.14517 -0.71151,-0.54176 -0.94242,-0.88131 -0.34611,-0.50893 -0.40296,-0.76437 -0.32367,-1.45444 0.0634,-0.55155 0.49791,-1.61605 1.2739,-3.12069 0.67947,-1.3175 1.13311,-2.39986 1.07227,-2.5584 -0.058,-0.15114 -0.31032,-0.2748 -0.56072,-0.2748 -0.2504,0 -0.70929,0.13053 -1.01977,0.29008 -0.31048,0.15954 -1.04075,0.61242 -1.62284,1.0064 -0.58208,0.39398 -1.87179,1.55059 -2.86602,2.57025 -1.66827,1.71093 -1.82978,1.83182 -2.09417,1.56742 -0.2644,-0.2644 -0.25082,-0.37986 0.17608,-1.49705 0.25442,-0.6658 0.46258,-1.29775 0.46258,-1.40433 0,-0.10657 -0.57546,0.1063 -1.27881,0.47305 -0.79033,0.41211 -2.59269,1.03957 -4.71841,1.64263 -1.89177,0.5367 -4.17754,1.14659 -5.079489,1.35533 -1.639909,0.37952 -1.639909,0.37952 -1.528107,1.12506 0.06149,0.41005 0.02346,1.07364 -0.08452,1.47464 -0.107978,0.401 -0.408812,0.98162 -0.668519,1.29026 -0.259707,0.30865 -0.73132,0.66944 -1.048028,0.80177 -0.316709,0.13233 -0.812083,0.2406 -1.100831,0.2406 -0.300731,0 -0.736406,-0.18189 -1.019901,-0.42579 -0.408075,-0.35109 -0.491955,-0.55998 -0.478086,-1.19062 0.0093,-0.42066 0.183169,-1.08985 0.386483,-1.48709 0.203315,-0.39725 0.636618,-0.95665 0.962896,-1.24313 0.326278,-0.28647 0.851953,-0.62803 1.168168,-0.75901 0.574936,-0.23814 0.574936,-0.23814 0.453773,-1.40271 -0.06664,-0.64051 -0.146507,-1.19307 -0.177482,-1.22791 -0.03097,-0.0348 -0.27917,0.0939 -0.551544,0.28606 -0.272374,0.19217 -0.931787,0.56946 -1.465364,0.83841 -0.533576,0.26896 -1.525764,0.6843 -2.204861,0.92298 -0.873021,0.30683 -1.764934,0.4612 -3.044684,0.52696 -1.443533,0.0742 -1.968594,0.0324 -2.593516,-0.20625 -0.430955,-0.16458 -1.020013,-0.56855 -1.309017,-0.89771 -0.340513,-0.38782 -0.568162,-0.88321 -0.646777,-1.40745 -0.06672,-0.44494 -0.08465,-1.25111 -0.03984,-1.79149 0.08148,-0.9825 0.08148,-0.9825 -0.804738,0.0519 -0.487417,0.56891 -1.320273,1.45561 -1.850789,1.97043 -0.530516,0.51482 -1.266933,1.09029 -1.636483,1.27882 -0.36955,0.18853 -0.867747,0.34278 -1.107106,0.34278 -0.25957,0 -0.582077,-0.18673 -0.799162,-0.46271 -0.363965,-0.46271 -0.363965,-0.46271 -1.522175,0.62074 -0.637016,0.5959 -1.729149,1.51241 -2.426962,2.0367 -0.697814,0.52428 -1.669246,1.15379 -2.158738,1.3989 -0.489492,0.24511 -1.283242,0.53395 -1.763889,0.64187 -0.480646,0.10792 -1.151715,0.14566 -1.491264,0.0839 -0.339548,-0.0618 -0.9628,-0.31294 -1.385002,-0.55814 -0.592903,-0.34433 -0.872372,-0.67259 -1.227728,-1.44207 -0.393553,-0.85219 -0.458119,-1.22691 -0.446478,-2.59128 0.0075,-0.87726 0.07364,-1.78416 0.14701,-2.01534 0.123802,-0.39006 0.06943,-0.37335 -0.755524,0.23222 -0.48891,0.3589 -1.632447,1.00474 -2.541194,1.43522 -0.908746,0.43048 -2.165531,0.90366 -2.792855,1.05152 -0.627324,0.14786 -1.743901,0.27 -2.481282,0.27144 -0.737381,0.001 -1.610506,-0.0889 -1.940278,-0.20076 -0.329771,-0.11186 -0.819064,-0.35624 -1.087316,-0.54308 -0.268252,-0.18683 -0.62264,-0.59141 -0.78753,-0.89906 -0.214912,-0.40098 -0.30156,-0.99699 -0.306019,-2.10495 -0.0062,-1.54559 -0.0062,-1.54559 -0.620561,-0.79375 -0.337887,0.41351 -1.043219,1.20691 -1.567405,1.76309 -0.524185,0.55619 -1.326243,1.25072 -1.782351,1.54341 -0.456108,0.29268 -1.00615,0.53215 -1.222316,0.53215 -0.216166,0 -0.535674,-0.0763 -0.710019,-0.16965 -0.174344,-0.0933 -0.416436,-0.40973 -0.537983,-0.70317 -0.220993,-0.53353 -0.220993,-0.53353 -1.4794,0.63563 -0.692124,0.64304 -1.972782,1.72493 -2.845907,2.4042 -0.873125,0.67927 -2.143124,1.59355 -2.822222,2.03173 -0.679097,0.43818 -1.909409,1.12131 -2.734027,1.51807 -1.34441,0.64686 -1.635978,0.72138 -2.822222,0.72138 -1.006188,0 -1.461126,-0.0836 -1.900187,-0.34908 -0.317499,-0.19199 -0.77935,-0.64067 -1.026336,-0.99707 -0.246986,-0.35641 -0.562683,-1.02553 -0.701549,-1.48695 -0.143778,-0.47774 -0.252484,-1.57302 -0.252484,-2.54394 0,-0.93776 0.156819,-2.57217 0.348487,-3.63204 0.191667,-1.05987 1.017424,-4.58609 1.835016,-7.83606 0.817591,-3.24996 1.613272,-6.65723 1.76818,-7.5717 0.154908,-0.91448 0.281208,-2.422603 0.280667,-3.351393 -5.41e-4,-0.92879 -0.08425,-1.988535 -0.186012,-2.354989 -0.101765,-0.366454 -0.420433,-0.934392 -0.708151,-1.262085 -0.365826,-0.416653 -0.782757,-0.658091 -1.386583,-0.802946 -0.711486,-0.170683 -1.056257,-0.157749 -1.958861,0.07349 -0.602471,0.154346 -1.62121,0.55808 -2.263864,0.897187 -0.642654,0.339107 -1.724087,1.028748 -2.403184,1.532536 -0.679097,0.503788 -2.513386,2.189955 -4.076198,3.747039 -1.562811,1.557081 -3.661396,3.823251 -4.663521,5.035921 -1.002125,1.21267 -2.60738,3.25848 -3.567234,4.54623 -0.959853,1.28775 -2.648683,3.68926 -3.7529554,5.33668 -1.1042721,1.64742 -2.7587953,4.25429 -3.6767183,5.79305 -0.917923,1.53875 -2.2616939,3.93944 -2.9861575,5.33485 -0.7244637,1.39541 -1.6589839,3.39039 -2.07671168,4.43329 -0.41772773,1.0429 -0.8529168,1.89618 -0.96708681,1.89618 -0.11417001,0 -0.29731047,-0.10812 -0.40697881,-0.24026 z m 96.3589485,-8.29597 c 0.323754,-0.13527 0.71808,-0.43075 0.87628,-0.65661 0.158199,-0.22586 0.287636,-0.75018 0.287636,-1.16516 0,-0.5164 -0.07527,-0.7545 -0.238499,-0.7545 -0.131174,0 -0.506316,0.18048 -0.83365,0.40107 -0.327333,0.22059 -0.775634,0.66889 -0.996223,0.99622 -0.22059,0.32734 -0.401073,0.73635 -0.401073,0.90891 0,0.17257 0.138906,0.35006 0.308681,0.39443 0.169774,0.0444 0.331073,0.0899 0.358443,0.10113 0.02737,0.0112 0.314652,-0.0902 0.638405,-0.22549 z m 74.188915,8.17024 c -0.53358,-0.0947 -1.48608,-0.41245 -2.11667,-0.70614 -0.63059,-0.29369 -1.5301,-0.90683 -1.99892,-1.36252 -0.46881,-0.4557 -1.03494,-1.18573 -1.25807,-1.6223 -0.22312,-0.43656 -0.52982,-1.16102 -0.68156,-1.60991 -0.15173,-0.44889 -0.36671,-1.49877 -0.47774,-2.33307 -0.15199,-1.14219 -0.15151,-1.98456 0.002,-3.41004 0.1121,-1.04122 0.47875,-2.9658 0.81476,-4.27684 0.33602,-1.31105 0.97372,-3.29863 1.41712,-4.41686 0.4434,-1.11823 1.2744,-2.98564 1.84666,-4.14981 0.57226,-1.16416 1.57644,-2.96936 2.23153,-4.01155 0.65508,-1.04219 1.78637,-2.70708 2.51397,-3.69975 0.72761,-0.992669 2.31511,-2.805469 3.52778,-4.028443 1.43088,-1.443037 2.76319,-2.593202 3.79541,-3.276521 0.87479,-0.579112 2.13577,-1.271202 2.80216,-1.537977 0.6664,-0.266776 1.71528,-0.532079 2.33087,-0.589563 0.82454,-0.077 1.32209,-0.02705 1.88965,0.18971 0.42373,0.161824 0.93734,0.471905 1.14136,0.689069 0.20401,0.217164 0.48498,0.671573 0.62437,1.009797 0.13938,0.338225 0.30754,1.018323 0.37367,1.511328 0.0661,0.493006 0.0296,1.558636 -0.0813,2.368068 -0.11083,0.809431 -0.40325,2.112625 -0.64983,2.895987 -0.24658,0.783365 -0.67531,1.926625 -0.95272,2.540575 -0.38141,0.84412 -0.58081,1.10108 -0.81785,1.05393 -0.22396,-0.0446 -0.30595,-0.21219 -0.28715,-0.58712 0.0145,-0.28862 0.40239,-1.59276 0.86205,-2.898087 0.66957,-1.901412 0.85297,-2.675342 0.92235,-3.892187 0.0719,-1.261155 0.0269,-1.653715 -0.26498,-2.31368 -0.2507,-0.566744 -0.53057,-0.879752 -0.97532,-1.090798 -0.34305,-0.162788 -0.93466,-0.295978 -1.3147,-0.295978 -0.38004,0 -1.12211,0.127987 -1.64904,0.284415 -0.52693,0.156429 -1.40426,0.509607 -1.94961,0.784841 -0.54536,0.275233 -1.61692,0.972199 -2.38125,1.548812 -0.76433,0.576613 -2.18569,1.870466 -3.15857,2.875229 -0.97288,1.004763 -2.36666,2.623753 -3.09729,3.597763 -0.73063,0.97401 -1.77509,2.49301 -2.32101,3.37556 -0.54593,0.88255 -1.54259,2.70501 -2.21482,4.04991 -0.67223,1.3449 -1.58188,3.39778 -2.02145,4.56194 -0.43958,1.16417 -0.96348,2.71198 -1.16425,3.43959 -0.20076,0.7276 -0.48675,2.02784 -0.63554,2.88942 -0.14878,0.86158 -0.26914,2.25064 -0.26745,3.08681 0.002,0.83616 0.11484,2.04766 0.25145,2.69222 0.13662,0.64456 0.42042,1.50911 0.63067,1.92123 0.21025,0.41212 0.73334,1.12463 1.16242,1.58336 0.47557,0.50842 1.19213,1.01893 1.8354,1.30761 0.58039,0.26046 1.55149,0.55592 2.158,0.65658 0.60651,0.10065 1.70138,0.13547 2.43305,0.0774 0.73167,-0.0581 1.88722,-0.25995 2.56787,-0.44857 0.68066,-0.18862 2.06605,-0.71763 3.07864,-1.17558 1.01259,-0.45795 2.22267,-1.05764 2.68907,-1.33264 0.4664,-0.27499 1.45894,-0.90826 2.20564,-1.40724 0.7467,-0.49899 2.07201,-1.47757 2.94514,-2.17461 0.87312,-0.69705 2.54,-2.14414 3.70417,-3.21575 1.16416,-1.07162 2.9501,-2.8784 3.96875,-4.01508 1.01864,-1.13668 2.20927,-2.59187 2.64583,-3.23376 0.43656,-0.64188 1.18278,-1.4607 1.65827,-1.8196 0.47548,-0.35889 1.21358,-0.75026 1.64021,-0.86971 0.5907,-0.16539 0.93507,-0.16944 1.44392,-0.017 0.36752,0.11011 0.80726,0.35383 0.97719,0.54161 0.16993,0.18777 0.37077,0.61545 0.44632,0.9504 0.0755,0.33495 0.0643,1.07498 -0.025,1.6445 -0.0893,0.56952 -0.35409,1.58699 -0.58847,2.26104 -0.23437,0.67406 -0.39044,1.26125 -0.34681,1.30488 0.0436,0.0436 0.93411,-0.0199 1.97885,-0.1412 1.04473,-0.12128 2.93139,-0.48375 4.19257,-0.80548 1.26118,-0.32173 2.88837,-0.79976 3.61597,-1.06229 0.72761,-0.26253 1.75948,-0.69942 2.29306,-0.97087 0.96462,-0.49072 0.97402,-0.5034 1.65163,-2.22692 0.37482,-0.95337 1.39775,-3.40027 2.27318,-5.43756 0.87543,-2.03729 2.09242,-4.70648 2.70443,-5.93153 0.61201,-1.225046 1.5144,-2.907376 2.00532,-3.738509 0.49091,-0.831133 0.97908,-1.564619 1.08482,-1.629969 0.10574,-0.06535 0.31098,-8.9e-5 0.45609,0.145025 0.2342,0.234198 0.10639,0.558598 -1.13754,2.887191 -0.77077,1.442842 -2.07818,4.091782 -2.90536,5.886542 -0.82718,1.79476 -1.95711,4.33476 -2.51096,5.64444 -0.55384,1.30969 -1.18954,2.8575 -1.41267,3.43959 -0.22313,0.58208 -0.57591,1.48463 -0.78397,2.00567 -0.37828,0.94734 -0.37828,0.94734 0.52636,0.17639 0.49756,-0.42402 1.19471,-0.99604 1.54923,-1.27116 0.35452,-0.27511 1.10371,-0.73404 1.66488,-1.01983 0.56116,-0.2858 1.27553,-0.529 1.5875,-0.54046 0.31196,-0.0114 0.73375,0.0323 0.9373,0.0972 0.20356,0.0649 0.46153,0.31866 0.57327,0.5639 0.11173,0.24523 0.20341,0.62074 0.20372,0.83445 3e-4,0.21372 -0.51255,1.46014 -1.13968,2.76983 -0.62713,1.30969 -1.16316,2.60851 -1.19118,2.88626 -0.0381,0.37741 0.0696,0.59632 0.42619,0.86637 0.35975,0.27245 0.73123,0.35897 1.50985,0.35163 0.56799,-0.005 1.5439,-0.13594 2.16869,-0.2902 0.62479,-0.15426 2.08848,-0.75614 3.25265,-1.3375 1.16417,-0.58136 2.87073,-1.62402 3.79236,-2.31702 0.92163,-0.69299 2.20916,-1.73288 2.86116,-2.31086 0.65201,-0.57798 1.26717,-1.00038 1.36702,-0.93867 0.0999,0.0617 0.1815,0.28611 0.18145,0.49866 -5e-5,0.21256 -0.1622,0.81301 -0.36035,1.33434 -0.19814,0.52132 -0.32695,0.98118 -0.28623,1.02189 0.0407,0.0407 0.40781,-0.30644 0.81576,-0.77147 0.40795,-0.46503 1.15195,-1.18791 1.65334,-1.60639 0.50138,-0.41849 1.20609,-0.91458 1.56603,-1.10243 0.35994,-0.18786 0.89572,-0.34155 1.19063,-0.34155 0.29501,0 0.68972,0.15353 0.87751,0.34132 0.18773,0.18773 0.42541,0.64413 0.52819,1.01424 0.10277,0.3701 0.1873,0.79741 0.18784,0.94957 5.4e-4,0.15217 0.12511,0.69466 0.27682,1.20553 0.25041,0.84321 0.35103,0.96211 1.09124,1.28954 0.68224,0.30179 1.04768,0.34483 2.2377,0.26354 0.81333,-0.0556 1.95097,-0.28129 2.65703,-0.52722 0.6791,-0.23654 1.9491,-0.78967 2.82222,-1.22918 0.87313,-0.43951 2.09726,-1.17493 2.72031,-1.63426 1.03603,-0.76379 1.15179,-0.80918 1.35496,-0.53133 0.13703,0.1874 0.1695,0.44927 0.0848,0.68346 -0.0756,0.2088 -0.52655,0.68177 -1.00218,1.05104 -0.47563,0.36926 -1.81728,1.14063 -2.98145,1.71414 -1.16417,0.57352 -2.75167,1.21502 -3.52778,1.42555 -0.77611,0.21054 -1.92705,0.38496 -2.55764,0.38761 -0.70256,0.003 -1.41973,-0.11256 -1.85208,-0.29831 -0.38806,-0.16672 -0.91736,-0.506 -1.17624,-0.75396 -0.3136,-0.30038 -0.56776,-0.84176 -0.76156,-1.62224 -0.15998,-0.64427 -0.36808,-1.46906 -0.46244,-1.83286 -0.14517,-0.5597 -0.2451,-0.66136 -0.64955,-0.6608 -0.26289,3.6e-4 -0.7558,0.1689 -1.09535,0.37453 -0.33955,0.20563 -1.21273,0.97924 -1.9404,1.71913 -0.72768,0.73989 -1.78385,1.96042 -2.34705,2.71228 -0.56321,0.75185 -1.14111,1.36701 -1.28423,1.36701 -0.14312,0 -0.30804,-0.12461 -0.36649,-0.27692 -0.0584,-0.1523 0.0635,-0.86131 0.27108,-1.57556 0.20753,-0.71426 0.43163,-1.44293 0.49799,-1.61927 0.0936,-0.24869 -0.0154,-0.21259 -0.48602,0.16091 -0.33368,0.26483 -1.40043,1.02843 -2.37057,1.69688 -0.97014,0.66844 -2.34242,1.50602 -3.0495,1.86127 -0.70709,0.35525 -2.01678,0.89342 -2.91042,1.19592 -1.21024,0.40968 -1.96235,0.55403 -2.94772,0.56574 -1.07603,0.0128 -1.44071,-0.0572 -1.95409,-0.37493 -0.34714,-0.21486 -0.72418,-0.59478 -0.83785,-0.84426 -0.11367,-0.24948 -0.20667,-0.80926 -0.20667,-1.24396 0,-0.62855 0.2364,-1.24704 1.15475,-3.02118 0.63511,-1.22696 1.1312,-2.39553 1.10243,-2.59683 -0.0429,-0.29971 -0.17109,-0.36245 -0.70799,-0.3464 -0.44999,0.0135 -1.03097,0.26029 -1.85208,0.78687 -0.65803,0.422 -2.09853,1.66832 -3.20111,2.7696 -1.22523,1.22377 -2.09968,1.96588 -2.24896,1.90859 -0.13435,-0.0516 -0.24427,-0.22164 -0.24427,-0.37797 0,-0.15633 0.23813,-0.9589 0.52917,-1.78348 0.29104,-0.82458 0.52917,-1.53145 0.52917,-1.57081 0,-0.0394 -0.41672,0.0972 -0.92604,0.30338 -0.50933,0.20623 -1.64042,0.60443 -2.51355,0.88491 -0.87312,0.28048 -2.54761,0.7022 -3.72108,0.93716 -1.17347,0.23495 -3.00652,0.52186 -4.07345,0.63758 -1.93986,0.2104 -1.93986,0.2104 -2.74867,1.22117 -0.50866,0.63566 -1.11224,1.15765 -1.62646,1.40658 -0.58932,0.28529 -0.99455,0.36711 -1.45118,0.293 -0.34844,-0.0565 -0.86217,-0.32186 -1.14163,-0.58959 -0.29717,-0.28471 -0.62326,-0.88294 -0.78551,-1.44106 -0.15258,-0.52484 -0.23437,-1.2195 -0.18176,-1.5437 0.0884,-0.54469 -0.0879,-0.40566 -2.32157,1.83131 -1.32948,1.33141 -3.25226,3.13953 -4.27286,4.01806 -1.0206,0.87852 -2.64612,2.15974 -3.61226,2.84716 -0.96614,0.68742 -2.55037,1.69599 -3.52051,2.24127 -0.97014,0.54528 -2.47826,1.26636 -3.35139,1.60241 -0.87312,0.33604 -2.06375,0.73413 -2.64583,0.88464 -0.58208,0.1505 -1.77271,0.30724 -2.64583,0.3483 -0.87313,0.0411 -2.02407,-0.003 -2.55764,-0.0975 z m 28.10152,-11.47362 c 0.21191,-0.10887 0.60356,-0.40153 0.87035,-0.65036 0.26679,-0.24883 0.48507,-0.51389 0.48507,-0.58901 0,-0.0751 -0.3369,-0.22731 -0.74866,-0.33819 -0.41176,-0.11087 -1.04152,-0.35099 -1.39945,-0.5336 -0.35794,-0.18261 -0.77234,-0.50553 -0.92088,-0.71761 -0.20391,-0.29112 -0.2896,-0.32411 -0.34971,-0.13465 -0.0438,0.13802 -0.12367,0.45422 -0.17753,0.70266 -0.0539,0.24845 -0.0181,0.74093 0.0795,1.09441 0.0976,0.35348 0.38386,0.80505 0.63614,1.00349 0.25227,0.19844 0.61195,0.3608 0.79927,0.3608 0.18732,0 0.51396,-0.0891 0.72586,-0.19794 z m 2.9338,-3.86585 c 0.31476,-0.68286 0.66084,-1.75856 0.76907,-2.39044 0.13972,-0.81565 0.14228,-1.23573 0.009,-1.44836 -0.10338,-0.16472 -0.39418,-0.373 -0.64622,-0.46283 -0.31493,-0.11226 -0.68979,-0.0869 -1.19846,0.0809 -0.40711,0.13436 -1.16501,0.63254 -1.68423,1.10708 -0.51922,0.47454 -0.94404,0.92446 -0.94404,0.99982 0,0.0754 0.34525,0.0981 0.76723,0.0506 0.61897,-0.0698 0.79016,-0.0267 0.88594,0.2229 0.0653,0.17016 0.0719,0.45695 0.0146,0.63731 -0.0572,0.18036 -0.26003,0.32793 -0.45064,0.32793 -0.1906,0 -0.62182,0.11501 -0.95825,0.25558 -0.33643,0.14057 -0.61169,0.3428 -0.61169,0.4494 0,0.1066 0.20257,0.38155 0.45017,0.61101 0.24759,0.22946 0.74368,0.49528 1.10243,0.59071 0.35874,0.0954 0.93816,0.18171 1.2876,0.19174 0.61989,0.0178 0.64927,-0.012 1.20762,-1.22334 z"
         id="lettering"
         sodipodi:nodetypes="csssssssssssscssssssssssssssssssscsssscsssssssscsssssssssssssssccsscsssscsssssssssssscssssssssscssssssssscssssssssssssccsssssssssscsssssssscsssssssscssssscsssssscsccssscsssccssscsssscssscsscssssssssssscssssssssssssssssssssscsssssssssssssssssssssscssssssscssscsssscssssssssssssssssssssssssssssccsssssssccssssssssssssssssssssscsscssscsssssssssssscsssssssssssssssssscssssssssssssssssssssscsssssscsssssssssssssssssssssscssssssssssssssssssssssssscssssssssssssscssssssssssssssssssssssssscscscsscscsssssscc"
         sodipodi:insensitive="true" /><g
         inkscape:groupmode="layer"
         id="layer2"
         inkscape:label="writing-guides"
         transform="translate(-0.52813046,90.779328)"
         style="display:inline"><path
           style="fill:none;fill-opacity:1;stroke:#de0202;stroke-width:0.529167;stroke-linecap:round;stroke-linejoin:round;stroke-dasharray:none;stroke-opacity:1"
           d="m 186.82172,11.325878 c 1.04282,-0.340032 0.79966,-2.3989791 1.43309,-4.2992655 3.11979,-9.3593657 -5.80162,-6.92757513 -10.11592,-2.6132792 -5.24042,5.2404221 -8.48611,10.8183787 -11.9705,17.7871587 -5.24474,10.489466 0.0879,23.138343 12.81349,16.775566 2.4341,-1.217048 5.07717,-3.339425 7.50265,-4.552164 2.69506,-1.347533 5.01501,-4.13676 6.74394,-6.153851 1.58436,-0.685821 6.89719,-9.265179 8.78568,-7.376683 2.16167,2.16167 -1.01979,10.617947 -4.59352,9.426704 -1.39093,-0.463644 -1.60662,-3.769495 -0.71899,-4.953014 0.72619,-0.968243 2.55946,-0.875699 2.23685,-1.19831 -0.016,-0.01602 -0.34294,-0.01656 -0.35949,0 -0.42939,0.429388 -1.27596,0.394959 -1.67764,1.19831 -0.337,0.674002 1.66209,1.837408 2.27679,1.837408 1.22799,0 3.43906,0.956697 4.63347,0.359493 1.69591,-0.847955 4.14271,-0.925832 5.87171,-1.358084 7.23122,-0.394215 7.85699,-7.725232 10.58508,-13.181409 0.55131,-1.102621 3.43515,-5.4967749 3.43515,-6.430929 0,-0.3931741 0.55921,-1.4317093 0.55921,-1.0385352 0,0.6644546 -3.24859,6.4041392 -3.7547,6.9102532 -1.38988,1.389875 -2.84255,7.642331 -3.83459,9.626423 -0.54765,1.09529 -1.04338,2.566084 -1.59775,3.674816 -0.27724,0.554473 -0.28328,1.601416 -0.75893,2.077071 -0.1098,0.109795 -0.34946,0.509231 -0.23966,0.399437 0.71091,-0.710915 1.45098,-1.680771 2.27679,-2.196902 0.72282,-0.451762 1.27282,-1.27551 1.91729,-1.597746 0.43043,-0.215216 0.72185,-0.998592 1.19831,-0.998592 0.65128,0 1.30974,-0.559211 2.07707,-0.559211 2.38378,0 -1.87632,6.073498 -1.35808,7.109972 0.5626,1.12521 3.59053,2.241243 4.87312,0.958647 0.47188,-0.471874 1.96822,-0.744445 2.63629,-1.078478 1.79647,-0.898237 3.29029,-2.020443 5.11278,-3.235437 1.35177,-0.901177 2.82887,-2.403754 2.836,-2.39662 0.0758,0.07576 -0.28512,0.735547 -0.31954,0.838817 -0.22794,0.683793 -0.28476,1.608038 -0.6391,2.316733 -0.25556,0.511116 -0.48027,0.921531 -0.6391,1.398028 -0.0521,0.15624 -0.23629,0.595778 -0.11983,0.479324 1.57186,-1.571867 6.34697,-8.811786 7.8689,-4.753296 0.84289,7.032265 10.3459,2.23642 13.42107,-0.399437"
           id="path6"
           inkscape:label="guide-cohn-main" /><path
           style="fill:none;fill-opacity:1;stroke:#de0202;stroke-width:0.529167;stroke-linecap:round;stroke-linejoin:round;stroke-dasharray:none;stroke-opacity:1"
           d="m 63.180581,16.590046 c 3.926068,-4.367203 13.256215,-4.124628 19.533307,-2.555355"
           id="path5"
           inkscape:label="guide-natasha-main-t" /><path
           style="fill:none;fill-opacity:1;stroke:#de0202;stroke-width:0.529167;stroke-linecap:round;stroke-linejoin:round;stroke-dasharray:none;stroke-opacity:1"
           d="M 13.578388,6.1305783 C 13.302738,6.9054378 13.125347,7.7303848 12.777837,8.4750498 11.079449,12.114452 6.1151782,21.232262 5.515694,24.829167 c -0.168851,1.013105 -1.6972978,6.10033 -2.230107,6.633138 -1.3546784,1.354679 -1.3164776,7.663706 -2.6875647,9.034793 -0.58017973,0.580181 0.6778293,-1.535563 1.258009,-2.115744 0.02657,-0.02657 -0.9396939,1.673538 -1.0292801,1.315194 C 0.61136156,38.834988 6.3634616,28.603717 7.4598897,27.288003 9.5408836,24.790811 11.154466,21.491046 12.892202,18.710669 16.223628,13.380386 21.813424,7.4643008 27.073394,3.9576536 28.993201,2.6777833 31.232891,1.1697139 33.592169,2.5852802 38.907405,5.7744227 31.59079,21.570731 31.59079,26.373087 c 0,0.982766 -1.163714,3.696776 -0.228727,4.631761 0.638008,0.638008 0.526227,2.521812 1.429554,2.973475 3.682952,1.841476 5.872956,-1.9114 8.748882,-2.630382 1.263647,-0.315912 3.178752,-2.664113 4.002754,-3.488116 -0.595842,-0.133832 5.855354,-4.288667 5.60386,-4.288667 -1.307039,0 -4.509069,2.695892 -3.316569,3.888392 1.777912,1.777912 6.419414,-4.95985 6.575956,-4.803307 1.163638,1.163638 -1.126923,4.268436 0.743369,5.203583 3.120908,1.560453 10.615542,-0.645481 12.065451,-3.545299 0.638544,-1.277088 1.08281,-2.45153 1.715467,-3.716844 1.535248,-3.070498 1.977288,-7.695512 4.288667,-10.006891 0.673947,-0.6739472 1.422944,-2.8458883 1.887013,-3.7740268 0.01443,-0.028862 1.257018,-2.001378 1.029281,-2.001378 -0.161473,0 -1.804705,3.421834 -2.115743,3.8883916 -1.577487,2.3662302 -8.754193,17.8874142 -7.147779,21.1002422 1.783581,3.567161 5.21351,2.43399 8.119877,-0.05718 2.065741,-1.059824 3.228549,-3.114186 4.803307,-4.688945 0.50644,-0.50644 1.785794,-0.870878 2.344472,-1.429555 0.06623,-0.06623 -0.397295,0.0271 -0.457458,0.05718 -1.062183,0.531091 -3.859376,2.830944 -2.458836,4.231485 1.041111,1.041111 4.134049,-2.933223 4.631761,-3.430934 0.934071,-0.934071 1.887363,-2.003128 1.887013,-2.001378 -0.414869,2.074344 -0.596371,4.321301 0.686187,5.603859 0.339276,0.339276 1.335356,0.191711 1.658285,0.51464 0.150335,0.150335 1.474832,0.263272 1.772649,0.114364 3.052151,-1.526076 5.451157,-1.619947 8.177059,-4.345849 0.194527,-0.194528 1.143644,-0.46334 1.143644,-0.743369 0,-0.350428 -0.495579,0.495579 -0.743369,0.743369 -0.903088,0.903088 -1.02928,1.97522 -1.02928,3.373751 0,3.457188 0.970446,3.604132 -1.372373,5.946952 -0.914835,0.914835 -2.933315,-1.964276 1.601102,-4.231485 1.227547,-0.613773 6.696564,-1.264248 7.376504,-1.944196 0.81321,-0.813203 3.86715,-1.624382 5.1464,-1.944196 2.52627,-0.449223 2.30177,-3.445411 3.77403,-4.917669 1.30575,-1.305745 3.26111,-7.72305 4.23149,-9.663797 1.29121,-2.5824257 2.89107,-5.2927285 2.74474,-5.1464007 -2.07317,2.0731706 -7.26219,13.8954287 -8.52015,17.6693087 -0.18602,0.558051 -1.79427,4.381407 -1.54392,4.631761 0.21365,0.213648 1.97217,-1.62908 2.11574,-1.772649 1.3632,-1.363196 3.10933,-3.488116 5.26077,-3.488116 2.54291,0 -2.05127,5.961526 -1.48674,7.090596 0.43598,0.871963 1.38644,0.700258 2.00138,1.315191 1.51784,1.517845 9.42457,-4.054688 10.57871,-4.63176 0.99984,-0.499919 1.82437,-1.424094 2.51602,-2.115743 0.79985,-0.79985 2.12455,-0.857733 2.11574,-0.857733 -1.95377,0 -4.38122,2.59501 -2.80193,4.174303 0.93905,0.939051 3.89624,-2.638224 4.40303,-3.145023 0.91913,-0.919127 1.77265,-2.147564 1.77265,-2.05856 0,1.410981 -0.65814,3.916437 0.28591,4.860489 3.49957,3.499569 10.70273,-1.382025 12.69446,-3.373751"
           id="path4"
           inkscape:label="guide-natasha-main" /></g></g></g></svg>
